<?xml version="1.0" standalone="no"?>
<!DOCTYPE svg PUBLIC "-//W3C//DTD SVG 20010904//EN"
 "http://www.w3.org/TR/2001/REC-SVG-20010904/DTD/svg10.dtd">
<svg version="1.0" xmlns="http://www.w3.org/2000/svg"
 width="192.000000pt" height="192.000000pt" viewBox="0 0 192.000000 192.000000"
 preserveAspectRatio="xMidYMid meet">

<g transform="translate(0.000000,192.000000) scale(0.100000,-0.100000)"
fill="#000000" stroke="none">
<path d="M670 644 c-157 -140 -300 -270 -318 -288 l-34 -33 58 -62 c132 -143
294 -224 498 -251 245 -33 531 78 693 269 25 30 34 47 27 57 -15 21 -622 564
-631 564 -5 0 -137 -115 -293 -256z m270 -59 l0 -75 -60 0 c-33 0 -60 3 -60 8
0 33 26 85 56 111 55 49 64 43 64 -44z m96 56 c32 -20 64 -74 64 -110 0 -19
-6 -21 -60 -21 l-60 0 0 75 c0 83 5 87 56 56z m-96 -246 l0 -75 -60 0 -60 0 0
75 0 75 60 0 60 0 0 -75z m160 0 l0 -75 -60 0 -60 0 0 75 0 75 60 0 60 0 0
-75z"/>
</g>
</svg>
